<?xml version="1.0" standalone="no"?>
<!DOCTYPE svg PUBLIC "-//W3C//DTD SVG 20010904//EN"
 "http://www.w3.org/TR/2001/REC-SVG-20010904/DTD/svg10.dtd">
<svg version="1.0" xmlns="http://www.w3.org/2000/svg"
 width="790.000000pt" height="868.000000pt" viewBox="0 0 790.000000 868.000000"
 preserveAspectRatio="xMidYMid meet">
<metadata>
Created by potrace 1.16, written by Peter Selinger 2001-2019
</metadata>
<g transform="translate(0.000000,868.000000) scale(0.100000,-0.100000)"
fill="#000000" stroke="none">
<path d="M0 4340 l0 -4340 3950 0 3950 0 0 4340 0 4340 -3950 0 -3950 0 0
-4340z m1684 3901 c145 -40 -39 66 2346 -1349 338 -201 919 -546 1290 -767
371 -221 882 -525 1135 -675 516 -307 549 -327 630 -402 122 -111 231 -295
277 -468 31 -118 31 -348 0 -462 -63 -233 -202 -436 -377 -554 -58 -40 -1028
-618 -2815 -1679 -1858 -1103 -2247 -1333 -2305 -1362 -156 -79 -355 -115
-524 -95 -100 12 -236 49 -304 83 l-37 19 0 3815 0 3815 48 24 c54 27 166 63
239 76 85 16 309 5 397 -19z"/>
<path d="M1963 5826 c-102 -32 -180 -102 -225 -202 -35 -76 -32 -198 6 -282
36 -78 113 -151 194 -184 l57 -23 920 0 c1027 0 966 -4 1067 70 95 70 157 209
143 320 -14 116 -97 230 -205 283 l-55 27 -930 2 c-749 1 -938 -1 -972 -11z"/>
<path d="M1953 4681 c-113 -39 -188 -117 -224 -235 -52 -167 31 -346 196 -423
l60 -28 930 0 930 0 60 24 c82 33 164 115 195 196 34 89 33 190 -4 271 -33 73
-100 142 -176 181 l-55 28 -930 2 c-875 2 -933 1 -982 -16z"/>
<path d="M1950 3540 c-76 -28 -128 -68 -172 -131 -100 -144 -85 -324 39 -451
26 -26 73 -59 107 -75 l61 -28 935 0 935 0 67 33 c129 63 201 179 201 322 1
60 -5 87 -26 132 -36 80 -104 149 -180 184 l-62 29 -925 2 c-900 2 -926 2
-980 -17z"/>
</g>
</svg>
