<svg version="1.1" id="rocket" xmlns="http://www.w3.org/2000/svg" xmlns:xlink="http://www.w3.org/1999/xlink" x="0" y="0" viewBox="0 0 395 463" xml:space="preserve">
  <style>
    .st0{fill:#fff}.st1{fill:#7dc3ea}.st5{fill:#396caa}.st7{fill:#d4ecff}.st8{fill:#5793ce}.st12{fill:none}.st13{fill:#ffa900}.st17{fill:#8cc0ff}.st23{opacity:.25}.st25{fill:#025798}.st26{fill:none;stroke:#d2c1d7;stroke-miterlimit:10}.st27{fill:#29abe2}.st28{fill:#d2c1d7}.st31{fill:none;stroke:#ff7431;stroke-width:.75;stroke-linecap:round;stroke-linejoin:round;stroke-miterlimit:10}
  </style>
  <path class="st0" d="M69.84 368.73c-.31 0-.63-.08-.91-.24-.56-.32-.91-.93-.91-1.58v-23.33c0-.65.35-1.25.91-1.58l20.2-11.66c.56-.32 1.26-.32 1.82 0s.91.93.91 1.58v23.33c0 .65-.35 1.25-.91 1.58l-20.2 11.66c-.29.16-.6.24-.91.24zm1.82-24.09v19.12l16.56-9.56v-19.12l-16.56 9.56zm18.38 10.61h.01-.01zM102.36 408.12a4.078 4.078 0 0 1-2.04-3.53c0-3.14 3.39-5.1 6.11-3.53 1.26.73 2.04 2.07 2.04 3.53 0 3.13-3.39 5.09-6.11 3.53z"/>
  <path class="st1" d="m275.16 456.59-29.13-16.82 29.13-16.82 29.14 16.82z"/>
  <path class="st0" d="M275.16 446.18c-.38 0-.76-.1-1.11-.3l-29.13-16.82a2.217 2.217 0 0 1 0-3.84l29.13-16.82c.69-.4 1.53-.4 2.21 0l29.13 16.82a2.217 2.217 0 0 1 0 3.84l-29.13 16.82c-.33.2-.71.3-1.1.3zm-24.7-19.04 24.7 14.26 24.7-14.26-24.7-14.26-24.7 14.26z"/>
  <radialGradient id="SVGID_1_" cx="272.408" cy="396.114" r="43.42" gradientUnits="userSpaceOnUse">
    <stop offset="0" stop-color="#274f89"/>
    <stop offset="1" stop-color="#173d7a"/>
  </radialGradient>
  <path fill="url(#SVGID_1_)" d="m304.3 414-29.14 16.82v-33.64l29.14-16.82z"/>
  <linearGradient id="SVGID_2_" gradientUnits="userSpaceOnUse" x1="246.032" y1="380.359" x2="322.865" y2="380.359">
    <stop offset="0" stop-color="#d4ecff"/>
    <stop offset=".238" stop-color="#d0eafe"/>
    <stop offset=".46" stop-color="#c5e2f9"/>
    <stop offset=".674" stop-color="#b2d6f2"/>
    <stop offset=".884" stop-color="#98c4e7"/>
    <stop offset="1" stop-color="#86b8e0"/>
  </linearGradient>
  <path fill="url(#SVGID_2_)" d="m275.16 397.18-29.13-16.82 29.13-16.82 29.14 16.82z"/>
  <radialGradient id="SVGID_3_" cx="209.982" cy="351.183" r="78.486" gradientUnits="userSpaceOnUse">
    <stop offset="0" stop-color="#699dd1"/>
    <stop offset=".266" stop-color="#6396cc"/>
    <stop offset=".641" stop-color="#5184bd"/>
    <stop offset="1" stop-color="#396caa"/>
  </radialGradient>
  <path fill="url(#SVGID_3_)" d="M275.16 430.82 246.03 414v-33.64l29.13 16.82z"/>
  <path class="st0" d="m264.67 412.64-8.15-4.7v-9.41l8.15 4.71zM55.96 280.99c-.38 0-.76-.1-1.11-.3l-29.13-16.82a2.217 2.217 0 0 1 0-3.84l29.13-16.82c.69-.4 1.53-.4 2.21 0l29.13 16.82a2.217 2.217 0 0 1 0 3.84l-29.13 16.82c-.33.2-.71.3-1.1.3zm-24.7-19.04 24.7 14.26 24.7-14.26-24.7-14.26-24.7 14.26zM45.47 247.46l-8.15-4.71v-9.41l8.15 4.71z"/>
  <path class="st1" d="m333.22 385.63-44.51-25.7c-2.73-1.58-2.39-4.33.77-6.15l42.98-24.81c3.15-1.82 7.93-2.02 10.66-.44l44.51 25.7c2.73 1.58 2.39 4.33-.77 6.15l-42.98 24.81c-3.16 1.82-7.93 2.02-10.66.44z"/>
  <path class="st0" d="M337.87 375.17c-2.18 0-4.27-.47-5.92-1.42l-44.51-25.7c-1.97-1.14-3.11-2.91-3.11-4.86 0-2.18 1.41-4.25 3.87-5.67l42.97-24.81c3.98-2.3 9.65-2.49 13.18-.44l44.51 25.7c1.97 1.14 3.11 2.91 3.11 4.86 0 2.18-1.41 4.25-3.87 5.67l-42.97 24.81c-2.12 1.24-4.74 1.86-7.26 1.86zm-3.39-5.79c1.96 1.13 5.76.92 8.13-.44l42.97-24.81c1.08-.62 1.34-1.19 1.35-1.29-.02-.03-.16-.24-.58-.48l-44.51-25.7c-1.96-1.13-5.76-.93-8.13.44l-42.98 24.81c-1.08.62-1.34 1.19-1.35 1.29.02.03.16.24.58.48l44.52 25.7z"/>
  <path class="st5" d="M389.45 327.09v-15.36l-34.44-.02-11.9-6.87c-2.73-1.58-7.5-1.38-10.66.44l-11.1 6.41-34.47-.02v15.79c-.08 1.07.52 2.1 1.83 2.86l44.51 25.7c2.73 1.58 7.5 1.38 10.66-.44l42.98-24.81c1.81-1.06 2.69-2.42 2.59-3.68z"/>
  <radialGradient id="SVGID_4_" cx="289.702" cy="307.204" r="56.257" gradientUnits="userSpaceOnUse">
    <stop offset="0" stop-color="#699dd1"/>
    <stop offset=".266" stop-color="#6396cc"/>
    <stop offset=".641" stop-color="#5184bd"/>
    <stop offset="1" stop-color="#396caa"/>
  </radialGradient>
  <path d="M338.17 303.78c-2 .05-4.07.55-5.71 1.5l-11.1 6.41-34.47-.02v15.79c-.08 1.07.52 2.1 1.83 2.86l44.51 25.7c1.31.76 3.1 1.1 4.95 1.06v-53.3z" fill="url(#SVGID_4_)"/>
  <path class="st7" d="M290.78 311.67h-3.9v15.79c-.08 1.07.52 2.1 1.83 2.86l2.07 1.2v-19.85z"/>
  <path class="st8" d="M333.91 356.35c2.36 1.01 5.76.95 8.52-.1v-17.93h-8.52v18.03z"/>
  <linearGradient id="SVGID_5_" gradientUnits="userSpaceOnUse" x1="300.32" y1="289.167" x2="388.441" y2="341.704">
    <stop offset="0" stop-color="#d4ecff"/>
    <stop offset=".201" stop-color="#d0eafe"/>
    <stop offset=".387" stop-color="#c5e2f9"/>
    <stop offset=".568" stop-color="#b2d6f2"/>
    <stop offset=".744" stop-color="#98c4e7"/>
    <stop offset=".842" stop-color="#86b8e0"/>
  </linearGradient>
  <path d="m333.22 340.28-44.51-25.7c-2.73-1.58-2.39-4.33.77-6.15l42.98-24.81c3.15-1.82 7.93-2.02 10.66-.44l44.51 25.7c2.73 1.58 2.39 4.33-.77 6.15l-42.98 24.81c-3.16 1.82-7.93 2.02-10.66.44z" fill="url(#SVGID_5_)"/>
  <path class="st0" d="m386.85 312.01-42.98 24.81c-3.15 1.82-7.93 2.02-10.66.44l-44.51-25.7c-.61-.35-1.06-.76-1.36-1.21-.94 1.51-.51 3.15 1.36 4.23l44.51 25.7c2.73 1.58 7.5 1.38 10.66-.44l42.98-24.81c2.45-1.41 3.2-3.39 2.13-4.94-.43.68-1.14 1.35-2.13 1.92z"/>
  <path class="st7" d="M373.08 331.14c0 1.15-.8 2.54-1.8 3.11-.99.57-1.8.11-1.8-1.04 0-1.15.8-2.54 1.8-3.11.99-.57 1.8-.11 1.8 1.04zM378.86 327.8c0 1.15-.8 2.54-1.8 3.11-.99.57-1.8.11-1.8-1.04s.8-2.54 1.8-3.11c1-.57 1.8-.11 1.8 1.04zM384.65 324.46c0 1.15-.8 2.54-1.8 3.11s-1.8.11-1.8-1.04c0-1.15.8-2.54 1.8-3.11.99-.57 1.8-.11 1.8 1.04z"/>
  <path class="st8" d="m335.85 324.35-20.83-12.02c-1.28-.74-1.12-2.03.36-2.88l20.11-11.61c1.48-.85 3.71-.94 4.99-.21l20.83 12.02c1.28.74 1.12 2.03-.36 2.88l-20.11 11.61c-1.48.86-3.71.95-4.99.21z"/>
  <path class="st7" d="m337.85 314.28-2.88-1.66c-.18-.1-.15-.28.05-.4l2.78-1.61c.2-.12.51-.13.69-.03l2.88 1.66c.18.1.15.28-.05.4l-2.78 1.61c-.21.12-.52.13-.69.03z"/>
  <path class="st5" d="m315.02 312.33.06.03c.1-.07.19-.14.3-.21l20.11-11.61c1.48-.85 3.71-.94 4.99-.21l20.77 11.99c1.18-.84 1.24-1.99.06-2.67l-20.83-12.02c-1.28-.74-3.51-.65-4.99.21l-20.11 11.61c-1.47.85-1.63 2.14-.36 2.88z"/>
  <path class="st1" d="m51.02 385.63-44.51-25.7c-2.73-1.58-2.39-4.33.77-6.15l42.98-24.81c3.15-1.82 7.93-2.02 10.66-.44l44.51 25.7c2.73 1.58 2.39 4.33-.77 6.15l-42.98 24.81c-3.16 1.82-7.93 2.02-10.66.44z"/>
  <path class="st0" d="M55.67 375.17c-2.17 0-4.27-.47-5.91-1.42l-44.51-25.7c-1.97-1.14-3.11-2.91-3.11-4.86 0-2.18 1.41-4.25 3.87-5.67l42.97-24.81c3.98-2.3 9.65-2.49 13.18-.44l44.51 25.7c1.97 1.14 3.11 2.91 3.11 4.86 0 2.18-1.41 4.25-3.87 5.67l-42.98 24.81c-2.12 1.24-4.74 1.86-7.26 1.86zm-3.39-5.79c1.96 1.13 5.76.92 8.13-.44l42.97-24.81c1.08-.62 1.34-1.19 1.35-1.29-.02-.03-.16-.24-.58-.48l-44.51-25.7c-1.96-1.13-5.76-.93-8.13.44L8.54 341.91c-1.08.62-1.34 1.19-1.35 1.29.02.03.16.24.58.48l44.51 25.7z"/>
  <path class="st5" d="M107.25 327.09v-15.36l-34.44-.02-11.9-6.87c-2.73-1.58-7.5-1.38-10.66.44l-11.1 6.41-34.47-.02v15.79c-.08 1.07.52 2.1 1.83 2.86l44.51 25.7c2.73 1.58 7.5 1.38 10.66-.44l42.98-24.81c1.81-1.06 2.69-2.42 2.59-3.68z"/>
  <radialGradient id="SVGID_6_" cx="7.5" cy="307.204" r="56.257" gradientUnits="userSpaceOnUse">
    <stop offset="0" stop-color="#699dd1"/>
    <stop offset=".266" stop-color="#6396cc"/>
    <stop offset=".641" stop-color="#5184bd"/>
    <stop offset="1" stop-color="#396caa"/>
  </radialGradient>
  <path d="M55.96 303.78c-2 .05-4.07.55-5.71 1.5l-11.1 6.41-34.47-.02v15.79c-.08 1.07.52 2.1 1.83 2.86l44.51 25.7c1.31.76 3.1 1.1 4.95 1.06v-53.3z" fill="url(#SVGID_6_)"/>
  <path class="st7" d="M8.58 311.67h-3.9v15.79c-.08 1.07.52 2.1 1.83 2.86l2.07 1.2v-19.85z"/>
  <path class="st8" d="M51.7 356.35c2.36 1.01 5.76.95 8.52-.1v-17.93H51.7v18.03z"/>
  <linearGradient id="SVGID_7_" gradientUnits="userSpaceOnUse" x1="18.118" y1="289.167" x2="106.239" y2="341.704">
    <stop offset="0" stop-color="#d4ecff"/>
    <stop offset=".201" stop-color="#d0eafe"/>
    <stop offset=".387" stop-color="#c5e2f9"/>
    <stop offset=".568" stop-color="#b2d6f2"/>
    <stop offset=".744" stop-color="#98c4e7"/>
    <stop offset=".842" stop-color="#86b8e0"/>
  </linearGradient>
  <path d="m51.02 340.28-44.51-25.7c-2.73-1.58-2.39-4.33.77-6.15l42.98-24.81c3.15-1.82 7.93-2.02 10.66-.44l44.51 25.7c2.73 1.58 2.39 4.33-.77 6.15l-42.98 24.81c-3.16 1.82-7.93 2.02-10.66.44z" fill="url(#SVGID_7_)"/>
  <path class="st0" d="m104.65 312.01-42.98 24.81c-3.15 1.82-7.93 2.02-10.66.44L6.5 311.56c-.61-.35-1.06-.76-1.36-1.21-.94 1.51-.51 3.15 1.36 4.23l44.51 25.7c2.73 1.58 7.5 1.38 10.66-.44l42.98-24.81c2.45-1.41 3.2-3.39 2.13-4.94-.43.68-1.14 1.35-2.13 1.92z"/>
  <path class="st7" d="M90.88 331.14c0 1.15-.8 2.54-1.8 3.11-.99.57-1.8.11-1.8-1.04 0-1.15.8-2.54 1.8-3.11.99-.57 1.8-.11 1.8 1.04zM96.66 327.8c0 1.15-.8 2.54-1.8 3.11-.99.57-1.8.11-1.8-1.04s.8-2.54 1.8-3.11c.99-.57 1.8-.11 1.8 1.04zM102.44 324.46c0 1.15-.8 2.54-1.8 3.11-.99.57-1.8.11-1.8-1.04 0-1.15.8-2.54 1.8-3.11 1-.57 1.8-.11 1.8 1.04z"/>
  <g>
    <path class="st8" d="m53.65 324.35-20.83-12.02c-1.28-.74-1.12-2.03.36-2.88l20.11-11.61c1.48-.85 3.71-.94 4.99-.21l20.83 12.02c1.28.74 1.12 2.03-.36 2.88l-20.11 11.61c-1.48.86-3.71.95-4.99.21z"/>
    <path class="st7" d="m55.64 314.28-2.88-1.66c-.18-.1-.15-.28.05-.4l2.78-1.61c.2-.12.51-.13.69-.03l2.88 1.66c.18.1.15.28-.05.4l-2.78 1.61c-.2.12-.51.13-.69.03z"/>
    <path class="st5" d="m32.82 312.33.06.03c.1-.07.19-.14.3-.21l20.11-11.61c1.48-.85 3.71-.94 4.99-.21l20.77 11.99c1.18-.84 1.24-1.99.06-2.67l-20.83-12.02c-1.28-.74-3.51-.65-4.99.21l-20.11 11.61c-1.48.85-1.64 2.14-.36 2.88z"/>
  </g>
  <path class="st12" d="M27.46 211.43H89v61.54H27.46v-61.54z"/>
  <path class="st13" d="M39.66 213.75a29.574 29.574 0 0 1 18.57-6.5c7.02 0 13.48 2.43 18.57 6.5l4.8-4.8 4.67 4.67-4.8 4.8c10.25 12.84 8.16 31.55-4.68 41.81-12.84 10.25-31.55 8.16-41.81-4.68-8.67-10.86-8.67-26.27 0-37.13l-4.8-4.8 4.67-4.67 4.81 4.8zm21.87 19.94V218.8L45 240.3h9.92v14.87l16.53-21.48h-9.92zm-16.52-36.36h26.44v6.61H45.01v-6.61z"/>
  <path id="flash_1_" class="st0" d="m62.62 216.44-.25 17.38 10.5-.29-17.08 23.92v-17.09H45.54z"/>
  <linearGradient id="SVGID_8_" gradientUnits="userSpaceOnUse" x1="139.545" y1="330.747" x2="139.545" y2="360.297">
    <stop offset="0" stop-color="#ffc72b"/>
    <stop offset="1" stop-color="#ff8c2b"/>
  </linearGradient>
  <path d="M148.36 336.01c0 4.87-8.82 30.13-8.82 30.13s-8.82-25.26-8.82-30.13c0-4.87 3.95-8.82 8.82-8.82s8.82 3.95 8.82 8.82z" fill="url(#SVGID_8_)"/>
  <linearGradient id="SVGID_9_" gradientUnits="userSpaceOnUse" x1="252.074" y1="331.285" x2="252.074" y2="360.835">
    <stop offset="0" stop-color="#ffc72b"/>
    <stop offset="1" stop-color="#ff8c2b"/>
  </linearGradient>
  <path d="M260.89 336.55c0 4.87-8.82 30.13-8.82 30.13s-8.82-25.26-8.82-30.13c0-4.87 3.95-8.82 8.82-8.82s8.82 3.95 8.82 8.82z" fill="url(#SVGID_9_)"/>
  <linearGradient id="SVGID_10_" gradientUnits="userSpaceOnUse" x1="193.074" y1="338.309" x2="193.074" y2="390.095">
    <stop offset="0" stop-color="#ffc72b"/>
    <stop offset="1" stop-color="#ff8c2b"/>
  </linearGradient>
  <path d="M208.53 347.53c0 8.53-15.45 52.79-15.45 52.79s-15.45-44.26-15.45-52.79c0-8.53 6.92-15.45 15.45-15.45s15.45 6.91 15.45 15.45z" fill="url(#SVGID_10_)"/>
  <path class="st17" d="M228.35 103.28c-11.92-42.4-27.38-72.71-33.65-72.73-7.43-.03-22.95 30.16-34.85 72.46l68.5.27z"/>
  <linearGradient id="SVGID_11_" gradientUnits="userSpaceOnUse" x1="163.043" y1="61.502" x2="225.149" y2="61.502">
    <stop offset="0" stop-color="#5a2da1"/>
    <stop offset=".008" stop-color="#5e2e9e"/>
    <stop offset=".098" stop-color="#8c3480"/>
    <stop offset=".187" stop-color="#b33a67"/>
    <stop offset=".276" stop-color="#d13e54"/>
    <stop offset=".363" stop-color="#e64146"/>
    <stop offset=".447" stop-color="#f3433e"/>
    <stop offset=".527" stop-color="#f7433b"/>
    <stop offset=".594" stop-color="#f2433e"/>
    <stop offset=".67" stop-color="#e44147"/>
    <stop offset=".752" stop-color="#cd3d56"/>
    <stop offset=".837" stop-color="#ad396b"/>
    <stop offset=".924" stop-color="#843386"/>
    <stop offset="1" stop-color="#5a2da1"/>
  </linearGradient>
  <path d="M225.15 92.45c-11.35-36.63-24.73-61.88-30.45-61.9-6.78-.03-20.3 25.11-31.65 61.66l62.1.24z" fill="url(#SVGID_11_)"/>
  <g>
    <linearGradient id="SVGID_12_" gradientUnits="userSpaceOnUse" x1="264.781" y1="269.328" x2="235.87" y2="269.328">
      <stop offset="0" stop-color="#d3f4ff"/>
      <stop offset=".251" stop-color="#c0e1ff"/>
      <stop offset=".992" stop-color="#96bcee"/>
    </linearGradient>
    <path d="M236.69 218.83s30.34 9.77 27.95 86.95c-.24 7.81-6.58 14.06-14.39 14.06-8 0-14.46-6.52-14.38-14.52l.82-86.49z" fill="url(#SVGID_12_)"/>
    <linearGradient id="SVGID_13_" gradientUnits="userSpaceOnUse" x1="-2016.882" y1="269.328" x2="-1987.971" y2="269.328" gradientTransform="matrix(-1 0 0 1 -1862.238 0)">
      <stop offset="0" stop-color="#d3f4ff"/>
      <stop offset=".251" stop-color="#c0e1ff"/>
      <stop offset=".992" stop-color="#96bcee"/>
    </linearGradient>
    <path d="M153.82 218.83s-30.34 9.77-27.95 86.95c.24 7.81 6.58 14.06 14.39 14.06 8 0 14.46-6.52 14.39-14.52l-.83-86.49z" fill="url(#SVGID_13_)"/>
    <linearGradient id="SVGID_14_" gradientUnits="userSpaceOnUse" x1="144.129" y1="170.482" x2="243.849" y2="170.482">
      <stop offset="0" stop-color="#96bcee"/>
      <stop offset=".327" stop-color="#badbfd"/>
      <stop offset=".53" stop-color="#d3f4ff"/>
      <stop offset=".716" stop-color="#c0e1ff"/>
      <stop offset="1" stop-color="#96bcee"/>
    </linearGradient>
    <path d="M214.52 310.41c10.43.04 19.45-7.29 21.5-17.51 4.85-24.23 7.71-52.84 7.83-83.5.35-87.44-38.26-178.81-49.15-178.85-12.9-.05-50.22 91.01-50.56 178.46-.12 30.66 2.51 59.29 7.17 83.56 1.96 10.24 10.93 17.64 21.36 17.68l41.85.16z" fill="url(#SVGID_14_)"/>
    <linearGradient id="SVGID_15_" gradientUnits="userSpaceOnUse" x1="208.071" y1="269.956" x2="179.187" y2="269.956">
      <stop offset="0" stop-color="#d3f4ff"/>
      <stop offset=".251" stop-color="#c0e1ff"/>
      <stop offset=".992" stop-color="#96bcee"/>
    </linearGradient>
    <path d="M193.63 219.42c3.24 0 5.95 2.47 6.24 5.69l8.17 88.53c.34 3.68-2.55 6.85-6.24 6.85h-16.34c-3.69 0-6.58-3.17-6.24-6.85l8.17-88.53c.29-3.22 3-5.69 6.24-5.69z" fill="url(#SVGID_15_)"/>
  </g>
  <g>
    <circle class="st17" cx="195.67" cy="164.23" r="27.3"/>
    <circle transform="rotate(-76.874 193.983 160.28)" class="st0" cx="193.99" cy="160.28" r="27.3"/>
    <circle class="st17" cx="193.99" cy="160.28" r="21.09"/>
    <g class="st23">
      <defs>
        <circle id="SVGID_17_" class="st23" cx="193.99" cy="160.28" r="21.09"/>
      </defs>
      <clipPath id="SVGID_16_">
        <use xlink:href="#SVGID_17_" overflow="visible"/>
      </clipPath>
      <g clip-path="url(#SVGID_16_)">
        <path class="st0" d="m199.88 136.3-27.09 37.74 4.29 3.35 26.08-39.49zM211.58 143.64l-27.08 37.75 2.45 1.57 26.22-38.25z"/>
      </g>
    </g>
  </g>
  <path class="st0" d="M194.37 138.13c-12.46 0-22.57 10.1-22.57 22.56 0 12.46 10.1 22.57 22.56 22.57h.01c12.46 0 22.57-10.1 22.57-22.56s-10.1-22.57-22.56-22.57h-.01z"/>
  <path class="st25" d="M176.27 160.7c0 7.17 4.16 13.35 10.2 16.29l-8.64-23.65c-.99 2.25-1.56 4.73-1.56 7.36zm30.32-.91c0-2.24-1.2-3.79-1.89-4.99-.92-1.5-1.78-2.76-1.78-4.24 0-1.66 1.66-3.21 3.44-3.21.08 0 .15.01.23.01a17.983 17.983 0 0 0-12.22-4.75c-6.1 0-11.48 3.02-14.76 7.63.26.08.35.04.69.04 1.89 0 4.82-.23 4.82-.23.97-.06 1.09 1.37.11 1.49 0 0-.98.12-2.07.17l6.71 20.11 3.96-11.88-2.94-8.2c-.97-.05-1.9-.17-1.9-.17-.98-.06-.86-1.56.11-1.49 0 0 3 .23 4.77.23 1.89 0 4.82-.23 4.82-.23.97-.06 1.09 1.37.12 1.49 0 0-.98.12-2.07.17l6.66 19.92 1.81-6.02c.92-2.35 1.38-4.3 1.38-5.85zm-11.9 2.49-5.43 15.78c1.62.48 3.34.74 5.11.74 2.11 0 4.13-.37 6.01-1.03-.05-.08-.1-.16-.13-.25l-5.56-15.24zm15.57-10.27c.08.58.12 1.2.12 1.86 0 1.84-.35 3.9-1.38 6.49l-5.53 15.99c5.38-3.14 9-8.97 9-15.65 0-3.15-.81-6.1-2.21-8.69z"/>
  <path class="st25" d="M171.75 160.7c0 12.47 10.15 22.62 22.62 22.62 12.48 0 22.62-10.15 22.62-22.62s-10.15-22.62-22.62-22.62c-12.48 0-22.62 10.15-22.62 22.62zm2.25 0c0-11.23 9.13-20.36 20.37-20.36s20.37 9.13 20.37 20.36-9.14 20.36-20.37 20.36S174 171.93 174 160.7z"/>
  <path class="st12" d="M125.75 262.08h91.02v91.02h-91.02v-91.02z"/>
  <g>
    <path class="st13" d="M268.46 10.11c-9.27-4.9-20.75-1.35-25.64 7.91-4.9 9.27-1.35 20.75 7.91 25.64 9.27 4.9 20.75 1.35 25.64-7.91 4.9-9.26 1.36-20.74-7.91-25.64zm-7.7 13.38a6.117 6.117 0 0 1-2.55-8.27c1.58-2.99 5.28-4.13 8.27-2.55s4.13 5.28 2.55 8.27a6.117 6.117 0 0 1-8.27 2.55z"/>
    <path class="st13" d="m259.58 44.29-4.19-7.96-10.1.41-.35.66-19.18 36.31 1.24 4.02 5.21 2.76 6.67-2.06 2.67-5.07-1.51-5.14 4.32-1.33-1.25-4.03 4.01-1.24-1.33-4.29 4.86-1.5-1.33-4.3 7.43-1.9z"/>
  </g>
  <path class="st26" d="M90.95 52.19c48.77-5.5 97.99-7.05 147.01-4.65"/>
  <g>
    <path class="st27" d="m79.39 73.12.8-32.95s20.02 3.22 33.89-8.94C127.34 44.05 147.5 41.8 147.5 41.8l-.8 32.95c-.09 3.67-.62 12.79-11.08 23.77-10.45 10.98-23.56 15.95-23.56 15.95S99.2 108.88 89.3 97.4c-9.91-11.47-10-20.61-9.91-24.28z"/>
    <path class="st0" d="M110.97 82.81 97.75 71.23l4.89-5.58 8.19 7.17 16.21-15.06 5.05 5.43z"/>
  </g>
  <g>
    <circle class="st28" cx="256.99" cy="437.97" r="2.83"/>
    <path class="st28" d="M10.43 292.72c0 1.57-1.27 2.83-2.83 2.83s-2.83-1.27-2.83-2.83c0-1.57 1.27-2.83 2.83-2.83s2.83 1.27 2.83 2.83z"/>
    <path class="st26" d="M264.49 222.77c0 2.57-2.09 4.66-4.66 4.66-2.57 0-4.66-2.09-4.66-4.66 0-2.57 2.09-4.66 4.66-4.66 2.57 0 4.66 2.09 4.66 4.66z"/>
    <path class="st28" d="M289.07 356.63c0 1.57-1.27 2.83-2.83 2.83-1.57 0-2.83-1.27-2.83-2.83s1.27-2.83 2.83-2.83a2.821 2.821 0 0 1 2.83 2.83zM78.52 398.8c0 1.57-1.27 2.83-2.83 2.83-1.57 0-2.83-1.27-2.83-2.83 0-1.57 1.27-2.83 2.83-2.83s2.83 1.26 2.83 2.83zM58.84 134.11c0 1.57-1.27 2.83-2.83 2.83-1.57 0-2.83-1.27-2.83-2.83 0-1.57 1.27-2.83 2.83-2.83a2.821 2.821 0 0 1 2.83 2.83zM190.73 42.23c0 1.57-1.27 2.83-2.83 2.83-1.57 0-2.83-1.27-2.83-2.83 0-1.57 1.27-2.83 2.83-2.83s2.83 1.26 2.83 2.83zM342.48 113.05c0 1.57-1.27 2.83-2.83 2.83-1.57 0-2.83-1.27-2.83-2.83s1.27-2.83 2.83-2.83 2.83 1.27 2.83 2.83zM339.65 131.53a1.419 1.419 0 1 1-2.84 0 1.419 1.419 0 1 1 2.84 0zM58.11 271.4a1.419 1.419 0 1 1-2.84 0c0-.78.63-1.42 1.42-1.42.78.01 1.42.64 1.42 1.42z"/>
    <circle class="st28" cx="80.49" cy="113.93" r="1.42"/>
    <circle class="st28" cx="266.55" cy="322.49" r="1.42"/>
  </g>
  <path class="st26" d="M258.28 48.57c45.81 2.89 78.36 8.56 78.36 15.33 0 9.63-63.44 17.44-141.69 17.44S53.26 73.53 53.26 63.9c0-3.71 9.4-7.14 25.42-9.97M253.11 140.81c64.32 3.07 109.92 10.76 109.92 19.77 0 11.71-77.12 21.2-172.25 21.2s-172.25-9.49-172.25-21.2c0-7.58 32.32-14.23 80.93-17.98M30.24 246.02c-4.05.85-7.65 1.74-10.78 2.65-9.24 2.7-14.34 5.66-14.34 8.77 0 12.47 82.17 22.58 183.54 22.58 16.41 0 32.32-.27 47.46-.76 9.62-.32 18.92-.73 27.85-1.23 63.8-3.53 108.22-11.42 108.22-20.59 0-9.59-50.22-17.78-118.92-21.06"/>
  <path class="st17" d="m158.98 103.37 68.5.27"/>
  <linearGradient id="SVGID_18_" gradientUnits="userSpaceOnUse" x1="163.173" y1="61.861" x2="225.28" y2="61.861">
    <stop offset="0" stop-color="#5a2da1"/>
    <stop offset=".008" stop-color="#5e2e9e"/>
    <stop offset=".098" stop-color="#8c3480"/>
    <stop offset=".187" stop-color="#b33a67"/>
    <stop offset=".276" stop-color="#d13e54"/>
    <stop offset=".363" stop-color="#e64146"/>
    <stop offset=".447" stop-color="#f3433e"/>
    <stop offset=".527" stop-color="#f7433b"/>
    <stop offset=".594" stop-color="#f2433e"/>
    <stop offset=".67" stop-color="#e44147"/>
    <stop offset=".752" stop-color="#cd3d56"/>
    <stop offset=".837" stop-color="#ad396b"/>
    <stop offset=".924" stop-color="#843386"/>
    <stop offset="1" stop-color="#5a2da1"/>
  </linearGradient>
  <path d="M225.28 92.81c-11.35-36.63-24.73-61.88-30.45-61.9-6.78-.03-20.3 25.11-31.65 61.66l62.1.24z" fill="url(#SVGID_18_)"/>
  <g>
    <path transform="rotate(-19.852 100.347 157.792)" class="st0" d="M70.93 137.12h58.81v41.3H70.93z"/>
    <path class="st28" d="M110.49 150.39c-5.41 2.22-6.61 15.66-7.85 17.45 0 0-9.39-6.75-12.68-3.91-3.3 2.84-9.47 22.97-9.47 22.97l54.52-19.69s-19.11-19.04-24.52-16.82zM101.83 148.58c1.12 3.06-.44 6.42-3.49 7.51-3.05 1.09-6.43-.51-7.55-3.57-1.12-3.06.44-6.42 3.49-7.51 3.05-1.09 6.43.51 7.55 3.57z"/>
    <path fill="none" stroke="#3fa9f5" stroke-width=".7500225" stroke-miterlimit="10" d="m65.516 148.4 55.458-20.024L135 167.223l-55.458 20.023z"/>
  </g>
  <g>
    <path class="st27" d="m356.13 269.78-71.62-16.1a4.764 4.764 0 0 1-3.6-5.68l9.84-43.8a4.764 4.764 0 0 1 5.68-3.6l71.62 16.1c2.56.58 4.17 3.12 3.6 5.68l-9.84 43.8a4.75 4.75 0 0 1-5.68 3.6z"/>
    <path class="st13" d="m311.17 224.24-12.08-2.71a1.708 1.708 0 0 1-1.29-2.03l1.9-8.45c.21-.92 1.12-1.49 2.03-1.29l12.08 2.71c.92.21 1.49 1.12 1.29 2.03l-1.9 8.45c-.2.92-1.11 1.49-2.03 1.29z"/>
    <path class="st31" d="M299.52 213.12c4.97 1.12 9.94 2.23 14.9 3.35M298.54 217.48c4.97 1.12 9.94 2.23 14.9 3.35M304.36 210.45l-2.55 11.33M310.52 211.83l-2.55 11.33"/>
    <path transform="rotate(12.667 353.794 226.183)" class="st0" d="M345.66 221.68h16.33v9.05h-16.33z"/>
    <path transform="rotate(12.667 299.846 236.22)" class="st0" d="M293.64 234.27h12.45v3.93h-12.45z"/>
    <path transform="rotate(12.667 317.376 240.16)" class="st0" d="M311.17 238.21h12.45v3.93h-12.45z"/>
    <path transform="rotate(12.667 334.904 244.098)" class="st0" d="M328.7 242.15h12.45v3.93H328.7z"/>
    <path transform="rotate(12.667 352.437 248.04)" class="st0" d="M346.24 246.09h12.45v3.93h-12.45z"/>
    <path transform="rotate(12.667 299.018 249.983)" class="st0" d="M290.89 249.19h16.3v1.62h-16.3z"/>
  </g>
  <g>
    <path class="st13" d="m254.32 142.97 32.57 38.51a3.119 3.119 0 0 0 4.39.37l43.34-36.66a3.119 3.119 0 0 0 .37-4.39l-32.57-38.51a3.119 3.119 0 0 0-4.39-.37l-43.34 36.66a3.111 3.111 0 0 0-.37 4.39z"/>
    <path class="st5" d="m288.37 106.04 2 2.36 4.99-4.23-2.16-2.56c-8.54-10.14-24.02-11.46-34.3-2.76-10.29 8.7-11.55 24.18-2.82 34.5l1.97 2.33 5.02-4.24-1.97-2.33c-6.39-7.55-5.46-18.87 2.06-25.23 7.5-6.36 18.82-5.39 25.21 2.16"/>
    <defs>
      <path id="SVGID_27_" d="m254.32 142.97 32.57 38.51a3.119 3.119 0 0 0 4.39.37l43.34-36.66a3.119 3.119 0 0 0 .37-4.39l-32.57-38.51a3.119 3.119 0 0 0-4.39-.37l-43.34 36.66a3.111 3.111 0 0 0-.37 4.39z"/>
    </defs>
    <clipPath id="SVGID_19_">
      <use xlink:href="#SVGID_27_" overflow="visible"/>
    </clipPath>
    <path class="st0" d="M295.42 133.92c-2.26-2.67-6.25-3-8.92-.74s-3 6.25-.74 8.92c1.77 2.09 4.59 2.72 7.01 1.83l4.22 11.45 9.66-8.17-10.59-6.06c1.29-2.25 1.13-5.14-.64-7.23z"/>
  </g>
  <g>
    <path class="st1" d="m114.75 458.84-29.14-16.82 29.13-16.82 29.14 16.83z"/>
    <path class="st0" d="M114.75 448.43c-.38 0-.76-.1-1.11-.3L84.5 431.31a2.217 2.217 0 0 1 0-3.84l29.13-16.82c.69-.4 1.53-.4 2.21 0l29.13 16.82a2.217 2.217 0 0 1 0 3.84l-29.13 16.82c-.33.2-.71.3-1.09.3zm-24.71-19.04 24.7 14.26 24.7-14.26-24.7-14.26-24.7 14.26z"/>
    <radialGradient id="SVGID_20_" cx="111.988" cy="398.368" r="43.42" gradientUnits="userSpaceOnUse">
      <stop offset="0" stop-color="#274f89"/>
      <stop offset="1" stop-color="#173d7a"/>
    </radialGradient>
    <path fill="url(#SVGID_20_)" d="m143.88 416.25-29.13 16.82v-33.64l29.13-16.82z"/>
    <linearGradient id="SVGID_21_" gradientUnits="userSpaceOnUse" x1="85.612" y1="382.613" x2="162.445" y2="382.613">
      <stop offset="0" stop-color="#d4ecff"/>
      <stop offset=".238" stop-color="#d0eafe"/>
      <stop offset=".46" stop-color="#c5e2f9"/>
      <stop offset=".674" stop-color="#b2d6f2"/>
      <stop offset=".884" stop-color="#98c4e7"/>
      <stop offset="1" stop-color="#86b8e0"/>
    </linearGradient>
    <path fill="url(#SVGID_21_)" d="m114.75 399.43-29.14-16.82 29.13-16.82 29.14 16.82z"/>
    <radialGradient id="SVGID_22_" cx="49.563" cy="353.437" r="78.486" gradientUnits="userSpaceOnUse">
      <stop offset="0" stop-color="#699dd1"/>
      <stop offset=".266" stop-color="#6396cc"/>
      <stop offset=".641" stop-color="#5184bd"/>
      <stop offset="1" stop-color="#396caa"/>
    </radialGradient>
    <path fill="url(#SVGID_22_)" d="m114.75 433.07-29.14-16.82v-33.64l29.14 16.82z"/>
    <path class="st0" d="m104.25 414.9-8.15-4.71v-9.4l8.15 4.7z"/>
  </g>
</svg>
